<svg width="23" height="22" viewBox="0 0 23 22" fill="none" xmlns="http://www.w3.org/2000/svg">
<path d="M15.1773 7.77783C16.675 7.77783 18.1114 8.33974 19.1704 9.33993C20.2295 10.3401 20.8244 11.6967 20.8244 13.1112V19.3334H17.0597V13.1112C17.0597 12.6397 16.8614 12.1875 16.5084 11.8541C16.1554 11.5207 15.6766 11.3334 15.1773 11.3334C14.6781 11.3334 14.1993 11.5207 13.8463 11.8541C13.4933 12.1875 13.295 12.6397 13.295 13.1112V19.3334H9.53027V13.1112C9.53027 11.6967 10.1252 10.3401 11.1843 9.33993C12.2433 8.33974 13.6797 7.77783 15.1773 7.77783V7.77783Z" stroke="white" stroke-width="1.24445" stroke-linecap="round" stroke-linejoin="round"/>
<path d="M5.7652 8.6665H2.00049V19.3332H5.7652V8.6665Z" stroke="white" stroke-width="1.24445" stroke-linecap="round" stroke-linejoin="round"/>
<path d="M3.88285 5.9999C4.92244 5.9999 5.7652 5.20396 5.7652 4.22212C5.7652 3.24028 4.92244 2.44434 3.88285 2.44434C2.84325 2.44434 2.00049 3.24028 2.00049 4.22212C2.00049 5.20396 2.84325 5.9999 3.88285 5.9999Z" stroke="white" stroke-width="1.24445" stroke-linecap="round" stroke-linejoin="round"/>
</svg>
